<?xml version="1.0" encoding="utf-8"?>
<svg viewBox="-142.703 -293.353 994.564 992.385" xmlns="http://www.w3.org/2000/svg">
  <path d="M -142.703 -293.353 L -142.703 699.032 L 851.861 699.032 L 851.861 -293.353 L -142.703 -293.353 Z M 835.992 683.208 L -126.835 683.208 L -126.835 -277.541 L 836.015 -277.541 L 836.015 683.208 L 835.992 683.208 Z M 5.354 -261.795 L 121.773 -261.795 L 121.773 -145.617 L 5.354 -145.617 L 5.354 -261.795 Z M 238.171 -261.795 L 354.568 -261.795 L 354.568 -145.617 L 238.171 -145.617 L 238.171 -261.795 Z M 471.021 -261.795 L 587.417 -261.795 L 587.417 -145.617 L 471.021 -145.617 L 471.021 -261.795 Z M 703.826 -261.795 L 820.245 -261.795 L 820.245 -145.617 L 703.826 -145.617 L 703.826 -261.795 Z M -111.043 -145.617 L 5.354 -145.617 L 5.354 -29.483 L -111.043 -29.483 L -111.043 -145.617 Z M 121.784 -145.617 L 238.182 -145.617 L 238.182 -29.483 L 121.784 -29.483 L 121.784 -145.617 Z M 354.579 -145.617 L 471.031 -145.617 L 471.031 -29.483 L 354.579 -29.483 L 354.579 -145.617 Z M 587.417 -145.617 L 703.815 -145.617 L 703.815 -29.483 L 587.417 -29.483 L 587.417 -145.617 Z M 5.354 -29.472 L 121.773 -29.472 L 121.773 86.695 L 5.354 86.695 L 5.354 -29.472 Z M 238.171 -29.472 L 354.568 -29.472 L 354.568 86.695 L 238.171 86.695 L 238.171 -29.472 Z M 471.021 -29.472 L 587.417 -29.472 L 587.417 86.695 L 471.021 86.695 L 471.021 -29.472 Z M 703.826 -29.472 L 820.245 -29.472 L 820.245 86.695 L 703.826 86.695 L 703.826 -29.472 Z M -111.043 86.694 L 5.354 86.694 L 5.354 202.84 L -111.043 202.84 L -111.043 86.694 Z M 121.784 86.694 L 238.182 86.694 L 238.182 202.84 L 121.784 202.84 L 121.784 86.694 Z M 354.579 86.694 L 471.031 86.694 L 471.031 202.84 L 354.579 202.84 L 354.579 86.694 Z M 587.417 86.694 L 703.815 86.694 L 703.815 202.84 L 587.417 202.84 L 587.417 86.694 Z M 5.354 202.84 L 121.773 202.84 L 121.773 319.007 L 5.354 319.007 L 5.354 202.84 Z M 238.171 202.84 L 354.568 202.84 L 354.568 319.007 L 238.171 319.007 L 238.171 202.84 Z M 471.021 202.84 L 587.417 202.84 L 587.417 319.007 L 471.021 319.007 L 471.021 202.84 Z M 703.826 202.84 L 820.245 202.84 L 820.245 319.007 L 703.826 319.007 L 703.826 202.84 Z M -111.043 319.007 L 5.354 319.007 L 5.354 435.172 L -111.043 435.172 L -111.043 319.007 Z M 121.784 319.007 L 238.182 319.007 L 238.182 435.172 L 121.784 435.172 L 121.784 319.007 Z M 354.579 319.007 L 471.031 319.007 L 471.031 435.172 L 354.579 435.172 L 354.579 319.007 Z M 587.417 319.007 L 703.815 319.007 L 703.815 435.172 L 587.417 435.172 L 587.417 319.007 Z M 5.354 435.172 L 121.773 435.172 L 121.773 551.318 L 5.354 551.318 L 5.354 435.172 Z M 238.171 435.172 L 354.568 435.172 L 354.568 551.318 L 238.171 551.318 L 238.171 435.172 Z M 471.021 435.172 L 587.417 435.172 L 587.417 551.318 L 471.021 551.318 L 471.021 435.172 Z M 703.826 435.172 L 820.245 435.172 L 820.245 551.318 L 703.826 551.318 L 703.826 435.172 Z M -111.043 551.329 L 5.354 551.329 L 5.354 667.496 L -111.043 667.496 L -111.043 551.329 Z M 121.784 551.329 L 238.182 551.329 L 238.182 667.496 L 121.784 667.496 L 121.784 551.329 Z M 354.579 551.329 L 471.031 551.329 L 471.031 667.496 L 354.579 667.496 L 354.579 551.329 Z M 587.417 551.329 L 703.815 551.329 L 703.815 667.496 L 587.417 667.496 L 587.417 551.329 Z"/>
</svg>