<?xml version="1.0" encoding="utf-8"?>
<svg viewBox="130.3593 224.2983 84 60" xmlns="http://www.w3.org/2000/svg">
  <g transform="matrix(1, 0, 0, 1, 122.35931396484375, -748.0639038085938)">
    <path style="text-indent:0;text-transform:none;direction:ltr;block-progression:tb;baseline-shift:baseline;color:#000000;enable-background:accumulate;" d="m 16,972.3622 c -4.39741,0 -8,3.60258 -8,8 l 0,44 c 0,4.3974 3.60259,8 8,8 l 68,0 c 4.39741,0 8,-3.6026 8,-8 l 0,-44 c 0,-4.39742 -3.60259,-8 -8,-8 l -68,0 z m 0,4 68,0 c 0.56265,0 1.082,0.11333 1.5625,0.3125 l -32.6875,28.4062 c -1.82028,1.5807 -3.99533,1.5808 -5.8125,0 l -32.625,-28.4062 c 0.4805,-0.19917 0.99985,-0.3125 1.5625,-0.3125 z m -3.9375,3.5625 32.375,28.1562 c 3.18389,2.7698 7.87786,2.7654 11.0625,0 l 32.4375,-28.1562 c 0.01557,0.147 0.0625,0.28554 0.0625,0.4375 l 0,44 c 0,2.2506 -1.7494,4 -4,4 l -68,0 c -2.2506,0 -4,-1.7494 -4,-4 l 0,-44 c 0,-0.15196 0.0469,-0.2905 0.0625,-0.4375 z" fill="#000000" fill-opacity="1" stroke="none" marker="none" visibility="visible" display="inline" overflow="visible"/>
  </g>
</svg>