<?xml version="1.0" encoding="utf-8"?>
<svg viewBox="290.2017 174.0617 56.2218 47.5144" xmlns="http://www.w3.org/2000/svg">
  <g stroke="none" stroke-width="1" fill="none" fill-rule="evenodd" transform="matrix(1, 0, 0, 1, 290.2019958496094, 173.57614135742188)">
    <g transform="translate(-1.000000, 0.000000)" fill="#000000">
      <path d="M12.198,32.092 C11.942,32.092 11.687,31.994 11.491,31.799 C11.101,31.408 11.101,30.775 11.491,30.384 L22.63,19.246 C23.021,18.856 23.653,18.856 24.044,19.246 C24.435,19.637 24.435,20.27 24.044,20.66 L12.905,31.799 C12.71,31.994 12.454,32.092 12.198,32.092"/>
      <path d="M29.194,15.095 C28.938,15.095 28.683,14.997 28.487,14.802 C28.097,14.411 28.097,13.778 28.487,13.388 L38.908,2.967 C39.299,2.576 39.932,2.576 40.322,2.967 C40.713,3.357 40.713,3.99 40.322,4.381 L29.901,14.802 C29.706,14.997 29.45,15.095 29.194,15.095"/>
      <path d="M17.792,37.685 C17.536,37.685 17.28,37.588 17.085,37.393 C16.694,37.002 16.694,36.369 17.085,35.978 L28.238,24.825 C28.629,24.434 29.262,24.434 29.652,24.825 C30.043,25.215 30.043,25.848 29.652,26.239 L18.499,37.393 C18.304,37.588 18.048,37.685 17.792,37.685"/>
      <path d="M34.788,20.689 C34.532,20.689 34.276,20.591 34.081,20.396 C33.69,20.005 33.69,19.372 34.081,18.982 L44.503,8.561 C44.894,8.17 45.526,8.17 45.917,8.561 C46.308,8.951 46.308,9.585 45.917,9.975 L35.495,20.396 C35.3,20.591 35.044,20.689 34.788,20.689"/>
      <path d="M39.614,4.674 C39.178,4.674 38.776,4.386 38.652,3.944 C38.503,3.413 38.813,2.861 39.345,2.711 L47.127,0.523 C47.654,0.374 48.211,0.683 48.36,1.215 C48.51,1.747 48.2,2.299 47.668,2.448 L39.886,4.637 C39.796,4.662 39.704,4.674 39.614,4.674"/>
      <path d="M45.211,10.268 C45.121,10.268 45.03,10.256 44.939,10.231 C44.407,10.081 44.098,9.529 44.247,8.997 L46.435,1.215 C46.584,0.683 47.137,0.374 47.668,0.523 C48.2,0.673 48.51,1.225 48.36,1.756 L46.173,9.538 C46.049,9.98 45.647,10.268 45.211,10.268"/>
      <path d="M22.575,42.924 C22.319,42.924 22.063,42.826 21.868,42.631 L7.185,27.948 C6.794,27.557 6.794,26.924 7.185,26.533 C7.575,26.143 8.208,26.143 8.599,26.533 L23.282,41.217 C23.673,41.608 23.673,42.241 23.282,42.631 C23.087,42.826 22.831,42.924 22.575,42.924"/>
      <path d="M2,43.921 C1.744,43.921 1.488,43.823 1.293,43.628 C0.902,43.238 0.902,42.605 1.293,42.214 L11.444,32.062 C11.835,31.672 12.468,31.672 12.858,32.062 C13.249,32.453 13.249,33.086 12.858,33.477 L2.707,43.628 C2.512,43.823 2.256,43.921 2,43.921"/>
      <path d="M6.079,48 C5.823,48 5.567,47.902 5.372,47.707 C4.981,47.317 4.981,46.683 5.372,46.293 L15.523,36.141 C15.914,35.751 16.547,35.751 16.937,36.141 C17.328,36.532 17.328,37.165 16.937,37.555 L6.786,47.707 C6.591,47.902 6.335,48 6.079,48"/>
      <path d="M6.079,48 C5.823,48 5.567,47.902 5.372,47.707 L1.293,43.628 C0.902,43.238 0.902,42.605 1.293,42.214 C1.684,41.823 2.316,41.824 2.707,42.214 L6.786,46.293 C7.177,46.683 7.177,47.317 6.786,47.707 C6.591,47.902 6.335,48 6.079,48"/>
      <path d="M46.023,32.092 C45.768,32.092 45.512,31.994 45.316,31.799 L17.899,4.381 C17.509,3.99 17.509,3.357 17.899,2.967 C18.29,2.576 18.923,2.576 19.313,2.967 L46.73,30.384 C47.121,30.775 47.121,31.408 46.73,31.799 C46.535,31.994 46.279,32.092 46.023,32.092"/>
      <path d="M40.43,37.685 C40.174,37.685 39.918,37.588 39.723,37.393 L12.306,9.975 C11.915,9.584 11.915,8.951 12.306,8.561 C12.696,8.17 13.329,8.17 13.72,8.561 L41.137,35.978 C41.527,36.369 41.527,37.002 41.137,37.393 C40.941,37.588 40.685,37.685 40.43,37.685"/>
      <path d="M18.607,4.674 C18.518,4.674 18.427,4.662 18.336,4.637 L10.554,2.448 C10.021,2.299 9.712,1.747 9.861,1.215 C10.011,0.683 10.565,0.374 11.095,0.523 L18.877,2.711 C19.409,2.861 19.719,3.413 19.569,3.944 C19.445,4.386 19.044,4.674 18.607,4.674"/>
      <path d="M13.012,10.268 C12.575,10.268 12.174,9.98 12.05,9.539 L9.861,1.757 C9.712,1.225 10.021,0.673 10.554,0.523 C11.08,0.374 11.638,0.683 11.787,1.215 L13.976,8.997 C14.125,9.529 13.815,10.081 13.283,10.231 C13.193,10.256 13.102,10.268 13.012,10.268"/>
      <path d="M35.646,42.924 C35.391,42.924 35.135,42.826 34.939,42.631 C34.549,42.241 34.549,41.608 34.939,41.217 L49.623,26.533 C50.014,26.143 50.646,26.143 51.037,26.533 C51.428,26.924 51.428,27.557 51.037,27.948 L36.354,42.631 C36.158,42.826 35.902,42.924 35.646,42.924"/>
      <path d="M56.222,43.921 C55.966,43.921 55.71,43.823 55.515,43.628 L45.363,33.477 C44.973,33.086 44.973,32.453 45.363,32.062 C45.754,31.672 46.387,31.672 46.777,32.062 L56.929,42.214 C57.319,42.605 57.319,43.238 56.929,43.628 C56.733,43.823 56.478,43.921 56.222,43.921"/>
      <path d="M52.143,48 C51.888,48 51.632,47.902 51.437,47.707 L41.284,37.555 C40.893,37.165 40.893,36.532 41.284,36.141 C41.675,35.751 42.308,35.751 42.698,36.141 L52.851,46.293 C53.241,46.683 53.241,47.317 52.851,47.707 C52.655,47.902 52.399,48 52.143,48"/>
      <path d="M52.143,48 C51.888,48 51.632,47.902 51.437,47.707 C51.046,47.317 51.046,46.683 51.437,46.293 L55.515,42.214 C55.905,41.823 56.538,41.823 56.929,42.214 C57.319,42.604 57.319,43.238 56.929,43.628 L52.851,47.707 C52.655,47.902 52.399,48 52.143,48"/>
    </g>
  </g>
</svg>