<?xml version="1.0" encoding="utf-8"?>
<svg viewBox="155.0699 229.5014 65.0076 65.0036" xmlns="http://www.w3.org/2000/svg">
  <path d="M 157.574 254.505 C 156.193 254.505 155.074 253.386 155.074 252.005 L 155.074 232.005 C 155.074 230.08 157.157 228.878 158.824 229.84 C 159.597 230.286 160.074 231.112 160.074 232.005 L 160.074 252.005 C 160.074 253.386 158.954 254.505 157.574 254.505 Z" transform="matrix(1, 0, 0, 1, 5.551115123125783e-17, 0)"/>
  <path d="M 177.574 234.505 L 157.574 234.505 C 155.649 234.505 154.446 232.422 155.409 230.755 C 155.855 229.981 156.681 229.505 157.574 229.505 L 177.574 229.505 C 179.498 229.505 180.701 231.588 179.739 233.255 C 179.292 234.028 178.467 234.505 177.574 234.505 Z" transform="matrix(1, 0, 0, 1, 5.551115123125783e-17, 0)"/>
  <path d="M 177.574 254.505 C 176.193 254.505 175.074 253.386 175.074 252.005 L 175.074 232.005 C 175.074 230.08 177.157 228.878 178.824 229.84 C 179.597 230.286 180.074 231.112 180.074 232.005 L 180.074 252.005 C 180.074 253.386 178.954 254.505 177.574 254.505 Z" transform="matrix(1, 0, 0, 1, 5.551115123125783e-17, 0)"/>
  <path d="M 177.574 254.505 L 157.574 254.505 C 155.649 254.505 154.446 252.422 155.409 250.755 C 155.855 249.981 156.681 249.505 157.574 249.505 L 177.574 249.505 C 179.498 249.505 180.701 251.588 179.739 253.255 C 179.292 254.028 178.467 254.505 177.574 254.505 Z" transform="matrix(1, 0, 0, 1, 5.551115123125783e-17, 0)"/>
  <path d="M 217.574 234.505 L 187.574 234.505 C 185.649 234.505 184.446 232.422 185.409 230.755 C 185.855 229.981 186.681 229.505 187.574 229.505 L 217.574 229.505 C 219.498 229.505 220.701 231.588 219.739 233.255 C 219.292 234.028 218.467 234.505 217.574 234.505 Z" transform="matrix(1, 0, 0, 1, 5.551115123125783e-17, 0)"/>
  <path d="M 217.574 244.505 L 187.574 244.505 C 185.649 244.505 184.446 242.422 185.409 240.755 C 185.855 239.981 186.681 239.505 187.574 239.505 L 217.574 239.505 C 219.498 239.505 220.701 241.588 219.739 243.255 C 219.292 244.028 218.467 244.505 217.574 244.505 Z" transform="matrix(1, 0, 0, 1, 5.551115123125783e-17, 0)"/>
  <path d="M 207.574 254.505 L 187.574 254.505 C 185.649 254.505 184.446 252.422 185.409 250.755 C 185.855 249.981 186.681 249.505 187.574 249.505 L 207.574 249.505 C 209.498 249.505 210.701 251.588 209.739 253.255 C 209.292 254.028 208.467 254.505 207.574 254.505 Z" transform="matrix(1, 0, 0, 1, 5.551115123125783e-17, 0)"/>
  <path d="M 177.574 274.505 L 157.574 274.505 C 155.649 274.505 154.446 272.422 155.409 270.755 C 155.855 269.981 156.681 269.505 157.574 269.505 L 177.574 269.505 C 179.498 269.505 180.701 271.588 179.739 273.255 C 179.292 274.028 178.467 274.505 177.574 274.505 Z" transform="matrix(1, 0, 0, 1, 5.551115123125783e-17, 0)"/>
  <path d="M 177.574 294.505 C 176.193 294.505 175.074 293.386 175.074 292.005 L 175.074 272.005 C 175.074 270.08 177.157 268.878 178.824 269.84 C 179.597 270.286 180.074 271.112 180.074 272.005 L 180.074 292.005 C 180.074 293.386 178.954 294.505 177.574 294.505 Z" transform="matrix(1, 0, 0, 1, 5.551115123125783e-17, 0)"/>
  <path d="M 177.574 294.505 L 157.574 294.505 C 155.649 294.505 154.446 292.422 155.409 290.755 C 155.855 289.981 156.681 289.505 157.574 289.505 L 177.574 289.505 C 179.498 289.505 180.701 291.588 179.739 293.255 C 179.292 294.028 178.467 294.505 177.574 294.505 Z" transform="matrix(1, 0, 0, 1, 5.551115123125783e-17, 0)"/>
  <path d="M 157.574 294.505 C 156.193 294.505 155.074 293.386 155.074 292.005 L 155.074 272.005 C 155.074 270.08 157.157 268.878 158.824 269.84 C 159.597 270.286 160.074 271.112 160.074 272.005 L 160.074 292.005 C 160.074 293.386 158.954 294.505 157.574 294.505 Z" transform="matrix(1, 0, 0, 1, 5.551115123125783e-17, 0)"/>
  <path d="M 217.574 274.505 L 187.574 274.505 C 185.649 274.505 184.446 272.422 185.409 270.755 C 185.855 269.981 186.681 269.505 187.574 269.505 L 217.574 269.505 C 219.498 269.505 220.701 271.588 219.739 273.255 C 219.292 274.028 218.467 274.505 217.574 274.505 Z" transform="matrix(1, 0, 0, 1, 5.551115123125783e-17, 0)"/>
  <path d="M 217.574 284.505 L 187.574 284.505 C 185.649 284.505 184.446 282.422 185.409 280.755 C 185.855 279.981 186.681 279.505 187.574 279.505 L 217.574 279.505 C 219.498 279.505 220.701 281.588 219.739 283.255 C 219.292 284.028 218.467 284.505 217.574 284.505 Z" transform="matrix(1, 0, 0, 1, 5.551115123125783e-17, 0)"/>
  <path d="M 207.574 294.505 L 187.574 294.505 C 185.649 294.505 184.446 292.422 185.409 290.755 C 185.855 289.981 186.681 289.505 187.574 289.505 L 207.574 289.505 C 209.498 289.505 210.701 291.588 209.739 293.255 C 209.292 294.028 208.467 294.505 207.574 294.505 Z" transform="matrix(1, 0, 0, 1, 5.551115123125783e-17, 0)"/>
</svg>