<?xml version="1.0" encoding="utf-8"?>
<svg viewBox="129.789 224.045 98.8793 86.9693" xmlns="http://www.w3.org/2000/svg">
  <path d="M 131.319 301.465 C 131.783 301.82 132.319 302.069 132.889 302.195 C 133.171 302.258 133.46 302.292 133.749 302.295 L 137.349 302.295 L 154.819 302.225 L 158.989 302.225 C 160.171 302.244 161.346 302.405 162.489 302.705 C 164.704 303.301 166.756 304.392 168.489 305.895 C 168.919 306.275 169.279 306.635 169.719 307.085 C 170.287 307.643 170.885 308.171 171.509 308.665 C 172.149 309.101 172.817 309.496 173.509 309.845 C 173.809 309.985 174.229 310.155 174.589 310.295 L 175.689 310.615 C 176.412 310.79 177.147 310.903 177.889 310.955 C 178.627 311.034 179.371 311.034 180.109 310.955 C 180.846 310.861 181.573 310.697 182.279 310.465 L 183.279 310.125 C 183.589 309.995 183.879 309.855 184.159 309.715 L 184.229 309.715 L 184.169 309.715 L 184.229 309.715 L 184.349 309.645 L 184.599 309.505 L 185.089 309.215 C 185.412 309.032 185.722 308.828 186.019 308.605 C 186.569 308.155 187.019 307.665 187.569 307.205 C 187.697 307.082 187.817 306.952 187.929 306.815 L 188.179 306.525 C 188.339 306.345 188.489 306.155 188.659 305.995 C 188.979 305.645 189.329 305.335 189.659 304.995 C 190.967 303.868 192.454 302.969 194.059 302.335 C 195.451 301.781 196.91 301.418 198.399 301.255 L 199.399 301.175 L 200.469 301.115 L 202.469 300.995 C 202.989 300.995 203.379 300.295 203.349 299.525 C 203.319 298.755 202.939 298.275 202.469 298.245 L 200.469 298.125 L 199.399 298.065 L 198.199 298.065 C 196.38 298.089 194.574 298.378 192.839 298.925 C 190.767 299.579 188.827 300.594 187.109 301.925 C 186.649 302.295 186.189 302.675 185.739 303.095 C 185.509 303.295 185.299 303.525 185.079 303.755 L 184.759 304.085 C 184.688 304.164 184.611 304.237 184.529 304.305 L 183.469 305.175 C 183.284 305.299 183.09 305.409 182.889 305.505 L 182.599 305.665 L 182.449 305.745 L 182.379 305.745 L 182.439 305.745 L 182.289 305.815 L 181.689 306.055 L 181.039 306.235 C 180.597 306.35 180.145 306.424 179.689 306.455 C 179.237 306.507 178.781 306.507 178.329 306.455 C 177.869 306.354 177.417 306.217 176.979 306.045 L 176.309 305.815 C 176.089 305.715 175.929 305.655 175.669 305.515 C 175.409 305.375 174.819 305.035 174.449 304.735 C 174.079 304.435 173.699 304.075 173.389 303.735 C 172.949 303.235 172.389 302.655 171.869 302.155 C 169.589 300.053 166.849 298.512 163.869 297.655 C 162.329 297.213 160.74 296.961 159.139 296.905 L 158.539 296.905 L 156.979 296.905 L 154.849 296.905 L 137.359 296.795 L 135.229 296.795 L 135.229 295.005 L 135.229 286.185 C 135.119 274.465 134.979 263.215 134.739 253.345 C 134.629 248.415 134.489 243.835 134.339 239.755 L 134.339 239.385 L 136.699 239.275 L 140.999 239.035 C 140.999 256.105 141.179 272.835 141.399 287.245 L 141.399 287.325 C 141.421 288.59 142.464 289.597 143.729 289.575 L 154.609 289.385 L 159.609 289.285 C 161.08 289.264 162.55 289.381 163.999 289.635 C 168.935 290.473 173.518 292.739 177.179 296.155 C 177.747 296.604 178.566 296.534 179.049 295.995 C 179.54 295.526 179.584 294.756 179.149 294.235 C 175.347 290.007 170.314 287.08 164.759 285.865 C 163.091 285.485 161.389 285.268 159.679 285.215 L 154.599 285.095 L 146.079 284.945 C 146.319 268.335 146.449 248.885 146.459 229.465 L 159.359 229.465 L 160.429 229.465 C 161.139 229.465 161.849 229.555 162.549 229.665 C 167.751 230.363 172.579 232.753 176.289 236.465 C 176.049 238.615 176.499 241.055 177.629 242.145 C 178.107 242.197 178.588 242.213 179.069 242.195 C 179.483 242.21 179.898 242.193 180.309 242.145 C 181.449 241.045 181.899 238.595 181.649 236.445 C 185.686 232.241 191.105 229.635 196.909 229.105 C 197.639 229.025 198.299 229.015 199.079 228.995 L 201.379 228.995 L 205.849 228.915 L 212.219 228.775 C 212.399 238.775 212.619 245.505 212.879 250.775 C 212.952 251.495 213.6 252.017 214.319 251.935 C 214.966 251.917 215.499 251.419 215.559 250.775 C 215.709 247.535 215.859 243.775 215.989 239.015 C 217.319 239.235 218.989 239.425 220.819 239.595 L 223.069 239.765 L 223.069 240.055 C 222.839 244.815 222.729 250.255 222.729 255.695 C 222.729 266.575 223.209 277.455 224.139 282.875 C 224.139 283.065 224.819 283.205 225.579 283.195 C 226.339 283.185 226.789 283.045 226.819 282.875 C 227.749 277.455 228.229 266.575 228.229 255.695 C 228.229 250.255 228.119 244.815 227.889 240.055 L 227.889 239.175 C 227.889 239.015 227.889 238.985 227.889 238.465 C 227.721 237.255 226.948 236.215 225.839 235.705 C 225.488 235.544 225.113 235.443 224.729 235.405 L 224.449 235.405 L 224.049 235.405 L 220.939 235.645 C 219.099 235.805 217.499 235.995 216.179 236.215 C 216.249 233.375 216.309 230.215 216.379 226.685 C 216.379 225.58 215.484 224.685 214.379 224.685 L 214.299 224.685 L 205.859 224.465 L 201.389 224.465 L 199.089 224.465 C 198.319 224.465 197.409 224.465 196.569 224.465 C 190.035 224.853 183.829 227.46 178.979 231.855 C 174.656 227.793 169.189 225.157 163.319 224.305 C 162.459 224.175 161.589 224.105 160.709 224.045 L 159.389 224.045 L 143.719 224.045 C 142.231 224.05 141.017 225.237 140.979 226.725 C 140.979 229.918 140.979 233.108 140.979 236.295 L 136.689 236.055 L 133.909 235.925 L 133.689 235.925 C 133.546 235.914 133.402 235.914 133.259 235.925 C 132.972 235.968 132.692 236.052 132.429 236.175 C 131.892 236.422 131.44 236.822 131.129 237.325 C 130.969 237.579 130.847 237.855 130.769 238.145 C 130.728 238.293 130.698 238.443 130.679 238.595 C 130.679 238.725 130.679 238.955 130.679 238.975 L 130.679 239.735 C 130.529 243.825 130.389 248.395 130.279 253.325 C 129.979 263.215 129.859 274.465 129.789 286.185 L 129.789 295.005 L 129.789 298.465 C 129.833 299.641 130.392 300.739 131.319 301.465 Z M 224.179 238.935 C 224.179 238.935 224.169 238.945 224.179 238.935 Z" transform="matrix(1, 0, 0, 1, 5.551115123125783e-17, 0)"/>
  <path d="M 194.579 250.845 C 196.442 251.114 198.259 251.639 199.979 252.405 C 200.736 252.764 201.47 253.168 202.179 253.615 C 202.509 253.835 202.859 254.035 203.179 254.245 L 204.059 254.925 C 204.379 255.175 205.059 254.925 205.619 254.355 C 206.179 253.785 206.229 253.225 205.929 252.915 L 205.039 251.995 C 204.719 251.695 204.359 251.415 204.039 251.115 C 203.276 250.49 202.471 249.918 201.629 249.405 C 199.664 248.266 197.536 247.436 195.319 246.945 C 189.847 245.783 184.138 246.775 179.379 249.715 C 173.733 253.147 169.918 258.925 168.979 265.465 C 166.459 282.586 183.418 296.014 199.505 289.635 C 200.574 289.212 201.608 288.707 202.599 288.125 C 204.299 290.335 206.719 293.125 209.599 296.275 C 211.289 298.125 213.119 300.075 215.029 302.075 L 215.749 302.825 L 216.109 303.205 C 216.239 303.345 216.499 303.575 216.699 303.755 C 220.521 307.569 227.039 305.816 228.431 300.599 C 229.077 298.177 228.383 295.595 226.609 293.825 C 226.439 293.635 226.199 293.365 226.069 293.245 L 225.689 292.885 L 224.939 292.165 C 222.939 290.255 220.939 288.425 219.139 286.735 C 215.939 283.825 213.069 281.365 210.829 279.655 C 213.334 275.079 214.108 269.754 213.009 264.655 C 212.517 262.444 211.687 260.323 210.549 258.365 C 210.036 257.522 209.465 256.717 208.839 255.955 C 208.539 255.595 208.259 255.245 207.959 254.955 L 206.979 254.065 C 206.639 253.745 205.979 253.945 205.439 254.505 C 204.899 255.065 204.799 255.595 205.019 255.885 L 205.699 256.765 C 205.919 257.075 206.119 257.415 206.339 257.765 C 206.786 258.477 207.19 259.215 207.549 259.975 C 208.316 261.698 208.841 263.518 209.109 265.385 C 209.718 269.821 208.675 274.327 206.179 278.045 C 204.81 280.078 203.041 281.81 200.979 283.135 C 198.799 284.498 196.349 285.371 193.799 285.695 C 182.48 287.167 172.833 277.525 174.299 266.205 C 174.619 263.655 175.489 261.205 176.849 259.025 C 178.18 256.941 179.927 255.154 181.979 253.775 C 185.68 251.291 190.162 250.248 194.579 250.845 Z M 209.079 282.325 C 210.759 284.475 213.079 287.155 215.749 290.105 C 217.429 291.955 219.259 293.915 221.179 295.905 L 221.899 296.655 L 222.259 297.035 C 222.379 297.155 222.359 297.165 222.429 297.225 C 222.583 297.44 222.689 297.685 222.739 297.945 C 222.936 299.071 221.956 300.052 220.829 299.855 C 220.57 299.804 220.324 299.699 220.109 299.545 L 219.919 299.385 L 219.539 299.025 L 218.789 298.305 C 216.789 296.385 214.789 294.555 212.989 292.875 C 210.069 290.215 207.419 287.925 205.289 286.245 C 206.707 285.097 207.98 283.781 209.079 282.325 Z" transform="matrix(1, 0, 0, 1, 5.551115123125783e-17, 0)"/>
  <path d="M 187.509 257.465 C 183.907 258.229 181.098 261.05 180.349 264.655 C 180.049 265.928 180.182 267.266 180.729 268.455 C 181.199 268.553 181.68 268.587 182.159 268.555 C 182.578 268.567 182.996 268.537 183.409 268.465 C 183.889 267.845 184.329 267.035 184.859 266.225 C 185.937 264.511 187.39 263.065 189.109 261.995 C 189.919 261.465 190.719 260.995 191.339 260.565 C 191.409 260.078 191.433 259.586 191.409 259.095 C 191.437 258.669 191.403 258.241 191.309 257.825 C 190.117 257.287 188.781 257.16 187.509 257.465 Z" transform="matrix(1, 0, 0, 1, 5.551115123125783e-17, 0)"/>
</svg>